<?xml version="1.0" standalone="no"?>
<!DOCTYPE svg PUBLIC "-//W3C//DTD SVG 20010904//EN"
 "http://www.w3.org/TR/2001/REC-SVG-20010904/DTD/svg10.dtd">
<svg version="1.0" xmlns="http://www.w3.org/2000/svg"
 width="809.000000pt" height="822.000000pt" viewBox="0 0 809.000000 822.000000"
 preserveAspectRatio="xMidYMid meet">

<g transform="translate(0.000000,822.000000) scale(0.100000,-0.100000)"
fill="#000000" stroke="none">
<path d="M3935 8194 c-38 -14 -77 -28 -85 -31 -8 -3 -19 -7 -25 -9 -14 -3
-210 -75 -320 -118 -132 -50 -289 -117 -299 -127 -6 -5 -16 -9 -23 -9 -7 0
-47 -16 -90 -36 -113 -52 -527 -258 -533 -265 -3 -3 -34 -21 -70 -40 -145 -78
-279 -158 -388 -230 -40 -27 -77 -49 -82 -49 -6 0 -10 -3 -10 -8 0 -4 -13 -13
-28 -20 -16 -6 -37 -20 -48 -30 -10 -10 -44 -35 -74 -55 -83 -55 -216 -149
-242 -172 -13 -11 -39 -31 -58 -45 -19 -13 -41 -30 -48 -37 -8 -7 -30 -26 -50
-41 -21 -15 -42 -31 -48 -37 -6 -5 -33 -28 -60 -50 -26 -22 -58 -49 -70 -60
-13 -12 -44 -39 -70 -60 -107 -90 -393 -371 -504 -495 -36 -40 -81 -90 -100
-110 -58 -63 -82 -91 -145 -170 -33 -41 -72 -88 -87 -105 -16 -16 -28 -33 -28
-37 0 -4 -6 -13 -13 -20 -7 -7 -41 -51 -76 -98 -34 -47 -69 -93 -77 -103 -8
-9 -14 -19 -14 -22 0 -5 -79 -118 -98 -141 -5 -5 -21 -29 -36 -51 -27 -41 -28
-46 -29 -197 -1 -86 0 -156 3 -156 3 0 6 -75 7 -166 2 -245 35 -612 84 -939
12 -77 25 -165 29 -195 4 -30 22 -122 40 -205 17 -82 36 -170 40 -195 5 -25
25 -108 45 -185 45 -172 41 -157 48 -175 3 -8 13 -44 22 -80 29 -115 179 -556
216 -636 10 -22 19 -43 19 -47 0 -3 11 -30 24 -59 13 -29 34 -80 47 -113 13
-33 27 -61 32 -63 4 -2 7 -11 7 -19 0 -9 13 -41 29 -72 17 -31 58 -112 92
-181 66 -135 117 -231 171 -322 92 -158 201 -336 218 -358 11 -14 42 -57 68
-97 80 -122 126 -187 144 -207 10 -11 30 -38 45 -60 16 -23 33 -46 38 -52 8
-9 47 -59 65 -83 5 -8 57 -24 340 -108 586 -173 1172 -281 1750 -323 181 -13
834 -13 1000 0 590 46 1142 157 1645 330 83 28 177 61 210 72 53 18 65 27 108
84 26 35 47 68 47 74 0 5 5 10 10 10 6 0 10 6 10 14 0 8 4 16 8 18 5 2 31 37
58 78 27 41 52 77 55 80 3 3 14 21 25 40 10 19 25 41 32 48 7 8 20 28 29 45 9
18 24 44 35 60 10 15 27 40 38 56 11 16 29 46 40 65 11 20 29 51 39 70 11 19
31 53 45 75 15 22 26 43 26 46 0 3 11 22 24 43 61 93 386 742 386 769 0 4 9
25 19 47 34 72 78 179 102 248 13 38 27 68 31 68 5 0 8 6 8 14 0 8 25 88 55
178 135 396 217 719 289 1138 61 352 76 538 83 1031 6 469 10 434 -61 528 -23
29 -50 66 -61 81 -46 63 -110 146 -122 158 -7 7 -13 17 -13 21 0 4 -16 24 -35
44 -19 20 -35 41 -35 47 0 5 -6 13 -13 17 -6 4 -39 42 -72 83 -33 41 -67 82
-75 91 -8 9 -33 38 -55 64 -123 148 -695 735 -716 735 -3 0 -33 25 -65 57 -33
31 -90 81 -129 111 -38 31 -74 62 -78 69 -4 7 -14 13 -20 13 -7 0 -31 18 -52
40 -21 22 -45 40 -51 40 -7 0 -14 4 -16 8 -1 5 -48 42 -103 83 -55 40 -102 76
-105 79 -12 13 -242 170 -249 170 -4 0 -16 9 -28 19 -11 10 -35 27 -54 36 -19
10 -45 26 -59 35 -61 42 -190 120 -240 145 -30 15 -57 31 -60 34 -3 4 -21 13
-40 21 -19 7 -42 19 -50 25 -24 20 -272 145 -286 145 -8 0 -14 5 -14 10 0 6
-5 10 -11 10 -10 0 -207 82 -240 99 -47 26 -402 160 -504 191 -340 103 -332
102 -440 64z m262 -100 c683 -210 1343 -532 1883 -918 47 -33 105 -74 128 -90
56 -38 351 -274 438 -351 218 -191 498 -466 688 -675 201 -221 444 -517 571
-693 17 -23 47 -64 68 -91 l37 -49 0 -291 c0 -618 -62 -1118 -210 -1701 -79
-311 -234 -777 -328 -985 -11 -25 -44 -99 -72 -165 -180 -413 -464 -920 -759
-1355 -141 -209 -146 -215 -198 -232 -26 -9 -102 -35 -168 -58 -534 -185
-1125 -302 -1727 -341 -364 -24 -924 -4 -1323 47 -492 62 -1068 192 -1555 350
l-75 24 -105 142 c-365 492 -635 975 -862 1538 -67 167 -180 493 -212 610 -8
30 -24 89 -36 130 -173 607 -290 1455 -290 2116 l0 180 58 85 c260 379 465
630 767 938 695 710 1542 1264 2540 1662 83 33 166 67 185 75 43 18 392 142
402 143 4 1 74 -19 155 -45z"/>
<path d="M3865 7899 c-188 -66 -554 -211 -685 -272 -463 -215 -799 -402 -1140
-635 -361 -246 -628 -468 -935 -776 -307 -308 -533 -582 -763 -921 l-81 -120
9 -286 c11 -352 42 -721 80 -969 28 -181 84 -494 100 -560 11 -41 28 -115 40
-165 72 -310 214 -735 355 -1065 199 -468 493 -966 817 -1387 48 -61 48 -62
150 -93 1446 -450 2721 -501 3983 -159 159 43 521 161 567 185 28 15 167 207
305 424 580 911 934 1807 1087 2750 56 344 79 643 79 1027 l0 293 -28 42 c-50
75 -260 349 -352 459 -12 13 -49 58 -84 99 -276 327 -699 745 -1004 989 -622
500 -1213 827 -1973 1095 -86 31 -337 106 -349 105 -4 0 -84 -27 -178 -60z
m445 -899 c615 -56 1147 -262 1649 -637 135 -102 430 -391 543 -533 567 -714
799 -1643 632 -2535 -91 -485 -314 -976 -618 -1360 -135 -171 -296 -336 -482
-494 -54 -46 -239 -177 -339 -240 -140 -88 -414 -220 -582 -280 -352 -126
-674 -182 -1048 -183 -241 0 -384 12 -575 48 -647 121 -1201 413 -1660 874
-247 249 -433 505 -584 807 -340 682 -422 1455 -232 2193 226 876 826 1615
1641 2023 317 158 699 271 1040 307 61 6 119 13 130 14 52 8 383 5 485 -4z"/>
<path d="M3928 6823 c-1 -4 -2 -72 -2 -150 l-1 -143 28 0 27 0 0 97 0 97 61
-97 c54 -87 64 -97 90 -97 l29 0 0 150 0 150 -25 0 c-24 0 -25 -2 -26 -77 -1
-43 -2 -82 -4 -88 -1 -5 -3 -14 -3 -20 -1 -5 -28 33 -60 85 -48 77 -64 96 -85
98 -15 2 -28 0 -29 -5z"/>
<path d="M3693 6798 l-73 -10 0 -31 c0 -18 7 -79 15 -137 8 -58 15 -108 15
-112 0 -11 29 -10 132 3 84 11 88 13 88 36 0 21 -4 24 -27 19 -16 -3 -53 -8
-84 -12 l-57 -6 -4 41 c-4 44 3 51 52 51 15 0 42 3 59 6 25 5 31 11 29 28 -3
19 -8 21 -53 17 -106 -7 -100 -9 -103 25 -3 29 0 32 35 37 21 4 52 7 68 7 39
0 57 13 49 33 -7 19 -28 20 -141 5z"/>
<path d="M4302 6790 c-64 -40 -90 -154 -50 -220 31 -50 113 -77 184 -59 54 14
60 21 67 86 7 57 6 58 -83 65 -29 3 -35 0 -38 -19 -3 -17 3 -23 28 -28 24 -5
30 -11 28 -28 -7 -49 -115 -36 -139 17 -14 29 -4 102 16 129 7 11 31 21 54 24
36 5 44 2 67 -24 19 -22 32 -29 50 -25 28 5 30 19 9 48 -36 52 -135 69 -193
34z"/>
<path d="M3488 6773 c-22 -5 -22 -20 -3 -98 24 -99 20 -100 -64 -14 -68 70
-82 80 -102 74 -13 -4 -25 -9 -27 -10 -2 -1 12 -66 29 -144 27 -120 35 -141
51 -141 28 0 31 22 13 101 -8 39 -13 74 -10 77 3 3 39 -27 79 -67 66 -65 77
-73 101 -67 21 5 26 12 22 26 -3 11 -17 76 -33 145 -15 69 -30 124 -33 124 -3
-1 -14 -3 -23 -6z"/>
<path d="M4610 6619 c-44 -67 -79 -127 -77 -133 8 -24 43 -16 65 14 15 20 29
29 40 26 9 -3 36 -10 59 -16 37 -9 42 -14 45 -42 2 -24 9 -34 31 -41 16 -5 30
-7 32 -6 1 2 -9 74 -24 159 l-27 155 -32 3 c-30 3 -35 -1 -112 -119z m104 25
c3 -9 6 -32 6 -51 0 -35 -1 -35 -32 -29 -17 3 -33 8 -36 10 -5 6 41 86 49 86
4 0 10 -7 13 -16z"/>
<path d="M3093 6672 c-49 -15 -83 -31 -83 -39 0 -11 31 -122 64 -228 7 -22 17
-40 22 -39 37 4 204 60 204 69 -1 32 -16 36 -81 15 -87 -27 -95 -26 -103 11
-3 17 -6 35 -6 38 0 4 29 15 65 26 56 16 65 21 65 42 0 28 -5 28 -82 2 -65
-22 -78 -18 -78 27 0 16 13 24 70 43 55 17 70 26 70 42 0 25 -23 24 -127 -9z"/>
<path d="M4934 6669 c-3 -5 -23 -60 -44 -122 -21 -62 -41 -119 -44 -128 -5
-11 1 -19 19 -27 24 -11 27 -10 40 21 7 18 17 45 20 60 4 15 12 27 18 27 9 0
94 -29 105 -35 1 -1 -7 -28 -18 -60 -16 -46 -17 -60 -8 -67 34 -21 43 -7 86
120 44 131 48 152 33 152 -5 0 -16 3 -24 6 -11 4 -20 -9 -32 -46 -19 -56 -25
-58 -97 -31 -32 12 -34 27 -13 77 8 20 13 40 10 44 -8 12 -45 19 -51 9z"/>
<path d="M2859 6575 l-26 -14 14 -87 c8 -48 12 -91 11 -96 -2 -6 -32 24 -66
66 l-63 75 -35 -16 c-43 -21 -42 -22 25 -172 46 -102 62 -120 89 -103 13 9 7
29 -48 145 -12 26 -21 50 -18 52 2 2 28 -28 58 -66 30 -39 60 -77 66 -85 9
-12 17 -12 37 -3 21 9 25 17 21 38 -2 14 -11 62 -19 105 -8 44 -13 81 -11 83
1 2 22 -40 47 -92 24 -52 46 -95 49 -95 3 0 14 6 23 13 16 11 13 22 -39 140
-60 134 -65 139 -115 112z"/>
<path d="M5296 6373 c-65 -119 -68 -127 -51 -140 26 -18 27 -18 55 26 22 36
44 50 78 51 8 0 12 -23 12 -80 0 -78 0 -80 30 -95 17 -9 30 -12 31 -8 1 11 -3
152 -5 182 -1 20 7 26 64 43 36 11 67 22 69 24 8 8 -34 33 -54 34 -11 0 -51
-11 -90 -24 -38 -13 -72 -22 -73 -21 -2 2 8 23 22 48 14 24 26 51 26 59 0 14
-20 28 -38 28 -4 0 -38 -57 -76 -127z"/>
<path d="M2427 6335 c-18 -13 -17 -16 13 -61 l33 -47 -23 -17 c-13 -10 -36
-25 -51 -34 -27 -16 -27 -16 -56 29 -30 48 -38 52 -65 31 -16 -12 -11 -23 58
-127 96 -143 90 -137 114 -113 20 19 20 20 -15 71 l-35 52 46 30 c25 17 48 31
52 31 4 0 20 -20 35 -45 36 -56 39 -58 65 -39 22 15 21 16 -58 134 -44 66 -84
120 -88 120 -4 0 -15 -7 -25 -15z"/>
<path d="M5571 6224 c-45 -63 -79 -120 -76 -124 5 -8 45 -37 161 -115 10 -7
17 -6 24 5 15 24 13 26 -50 71 -33 23 -60 46 -60 51 0 14 31 58 41 58 5 0 31
-16 58 -35 55 -39 66 -42 79 -18 8 13 2 22 -27 42 -89 62 -85 56 -66 85 20 30
12 32 105 -31 40 -27 56 -29 63 -8 4 9 -8 25 -31 43 -46 36 -129 92 -135 92
-3 0 -42 -52 -86 -116z"/>
<path d="M2098 6086 c-10 -7 -18 -20 -18 -28 0 -17 86 -278 95 -286 3 -3 15 3
25 14 18 17 19 24 9 52 -10 29 -9 35 12 54 53 46 65 51 103 37 28 -10 38 -10
50 0 9 8 16 17 16 22 0 5 -31 24 -68 43 -38 19 -91 48 -119 64 -66 39 -84 44
-105 28z m105 -90 l39 -24 -23 -21 c-33 -31 -45 -26 -62 24 -18 53 -11 56 46
21z"/>
<path d="M5910 6005 c-40 -47 -80 -85 -90 -85 -26 0 -42 24 -35 53 5 19 2 28
-14 36 -16 9 -22 8 -31 -8 -18 -35 -12 -76 18 -103 62 -58 100 -44 201 74 66
77 69 83 54 100 -9 10 -19 18 -23 18 -5 0 -40 -38 -80 -85z"/>
<path d="M4270 6061 c-14 -4 -76 -11 -138 -15 -122 -7 -189 -26 -247 -71 -46
-35 -58 -58 -66 -133 -8 -81 -26 -99 -152 -163 -98 -49 -132 -58 -139 -39 -4
12 -122 40 -201 47 -32 3 -77 1 -100 -5 -23 -6 -69 -16 -102 -23 -71 -15 -129
-42 -240 -114 -84 -54 -165 -129 -165 -152 0 -7 -4 -13 -9 -13 -12 0 -71 -118
-71 -142 0 -14 8 -18 38 -18 49 1 111 32 197 101 39 31 90 67 115 80 25 13 47
27 48 32 2 4 9 7 16 7 7 0 28 7 46 17 47 23 211 22 305 -2 39 -9 74 -21 80
-26 5 -5 -42 -9 -114 -9 -100 0 -122 -3 -118 -14 3 -7 8 -33 12 -57 l6 -44
-62 -2 c-34 -2 -67 -7 -73 -13 -5 -5 -25 -10 -43 -10 -18 0 -33 -4 -33 -10 0
-5 -11 -10 -24 -10 -13 0 -26 -7 -30 -15 -3 -8 -15 -15 -26 -15 -11 0 -20 -7
-20 -15 0 -9 -6 -15 -12 -13 -13 2 -58 -19 -68 -31 -3 -4 -21 -18 -40 -31 -44
-30 -46 -33 -102 -101 -25 -31 -53 -78 -63 -103 -16 -43 -17 -49 -3 -63 14
-14 22 -12 80 16 35 16 72 39 83 51 10 11 24 20 31 20 7 0 14 4 16 8 5 13 104
82 117 82 6 0 11 5 11 10 0 6 9 10 20 10 11 0 23 7 26 15 4 8 17 15 29 15 13
0 27 5 30 10 4 6 53 10 115 10 l110 0 40 -80 c22 -44 40 -81 40 -84 0 -2 -40
-2 -89 1 -65 4 -101 1 -132 -10 -24 -8 -64 -21 -89 -28 -25 -7 -49 -16 -54
-21 -6 -4 -18 -8 -28 -8 -10 0 -40 -16 -67 -35 -26 -19 -53 -35 -60 -35 -6 0
-26 -15 -45 -32 -19 -18 -50 -47 -68 -64 -64 -58 -118 -148 -118 -194 0 -20 4
-22 38 -16 44 7 98 32 126 58 11 10 24 18 28 18 5 0 24 15 44 33 62 56 192
127 234 127 14 0 31 5 37 11 16 16 208 1 258 -21 11 -5 44 -16 72 -25 29 -9
55 -21 58 -26 4 -5 19 -9 35 -9 21 0 60 -23 137 -79 130 -97 232 -149 310
-159 l58 -7 3 -55 3 -55 -68 -37 c-97 -53 -176 -118 -220 -183 l-38 -56 -110
8 c-60 4 -237 8 -393 8 -219 0 -282 3 -282 13 0 14 16 16 25 3 3 -6 28 4 56
22 59 36 122 41 248 18 59 -10 90 -11 155 -1 101 15 120 24 106 51 -6 11 -14
18 -18 15 -4 -2 -45 -10 -92 -16 -71 -10 -99 -9 -184 6 -56 9 -102 18 -104 19
-1 1 29 34 66 73 80 83 118 102 206 102 49 0 65 4 70 16 10 27 -3 34 -65 34
-113 0 -142 -13 -240 -111 -49 -49 -93 -89 -98 -89 -5 0 6 23 24 51 76 113 84
258 15 294 -64 33 -82 4 -29 -46 30 -28 31 -33 26 -81 -10 -79 -53 -153 -142
-246 -97 -99 -115 -102 -115 -13 0 84 -29 195 -62 235 -41 49 -120 86 -186 86
-65 0 -96 -14 -83 -37 7 -13 22 -16 69 -14 105 4 164 -40 196 -148 16 -56 22
-161 9 -161 -5 0 -19 16 -33 35 -14 19 -46 49 -71 65 -70 46 -130 54 -304 44
-147 -9 -150 -9 -153 -33 l-4 -23 169 7 c192 7 228 0 290 -59 l37 -34 -35 -10
c-26 -7 -44 -4 -79 11 -25 11 -77 22 -116 24 -60 5 -85 1 -154 -22 -45 -15
-102 -29 -127 -30 -51 -3 -69 -16 -59 -41 8 -22 66 -16 190 20 95 28 170 32
225 13 48 -17 48 -31 4 -63 -97 -71 -146 -120 -163 -160 -10 -23 -34 -60 -54
-81 -19 -22 -40 -52 -45 -66 -7 -18 -18 -27 -33 -27 -37 -1 -105 -36 -124 -65
-15 -24 -16 -33 -6 -72 l13 -45 -50 -53 c-67 -70 -77 -111 -56 -213 8 -42 26
-93 39 -112 17 -26 22 -45 18 -72 -8 -70 10 -95 177 -255 113 -106 171 -155
198 -163 21 -7 41 -15 45 -19 4 -3 -6 -67 -22 -141 -16 -74 -26 -140 -22 -146
4 -7 50 -62 102 -123 l95 -111 175 7 c340 15 460 0 657 -82 302 -127 356 -139
581 -133 192 6 255 21 452 107 246 107 363 126 675 109 l213 -12 29 34 c15 19
63 74 106 123 59 67 78 95 74 111 -3 11 -22 95 -42 185 l-38 165 39 30 c51 40
164 154 164 166 0 5 20 37 43 72 136 197 198 370 199 553 1 147 -52 246 -213
400 -159 151 -243 204 -367 230 -172 37 -345 5 -437 -80 l-36 -32 -217 -6
c-188 -5 -361 -21 -459 -42 -15 -4 13 16 63 43 106 57 198 121 302 210 41 34
81 63 90 63 10 1 40 3 67 4 67 4 124 15 131 26 3 5 14 9 24 9 11 0 36 7 57 16
21 9 47 20 58 24 11 4 45 19 75 33 30 14 78 36 107 48 29 13 52 30 53 38 0 7
6 11 15 7 8 -3 15 -2 15 3 0 4 11 14 25 21 14 7 25 17 25 20 0 4 16 24 35 45
42 46 75 114 75 155 0 29 -2 30 -43 30 -29 0 -50 -6 -65 -20 -12 -11 -24 -20
-28 -20 -10 0 -108 -63 -112 -72 -2 -5 -10 -8 -18 -8 -8 0 -14 -3 -14 -7 0 -9
-48 -33 -66 -33 -6 0 -14 -7 -18 -15 -3 -8 -11 -15 -18 -15 -12 0 -35 -10
-138 -61 -86 -41 -102 -31 -52 34 15 20 48 69 74 110 46 71 50 75 93 81 25 4
45 11 45 17 0 5 6 9 14 9 7 0 25 9 39 20 14 11 33 20 44 20 10 0 49 22 87 48
49 33 76 60 93 92 13 24 28 47 33 50 13 8 50 91 50 113 0 26 -26 31 -64 13
-19 -9 -40 -16 -48 -16 -7 0 -24 -9 -38 -20 -49 -40 -145 -100 -158 -100 -8 0
-11 6 -8 13 2 6 17 49 31 95 14 45 32 82 38 82 19 0 137 84 137 97 0 7 4 13 9
13 15 0 102 154 99 175 -3 18 -9 20 -56 17 -41 -2 -65 -11 -113 -42 -34 -22
-65 -37 -69 -35 -5 3 -11 29 -15 58 -41 318 -174 458 -505 532 -83 19 -485 31
-530 16z m622 -259 c82 -40 155 -117 199 -209 29 -61 31 -72 26 -137 -10 -118
-19 -138 -74 -159 -27 -10 -57 -23 -67 -29 -18 -9 -18 -7 -12 28 3 22 9 58 12
81 l7 42 -459 3 -459 3 -105 51 c-58 28 -120 57 -137 65 -40 17 -41 22 -6 45
26 16 31 16 93 1 83 -22 132 -22 178 0 47 23 141 117 186 186 28 46 41 56 68
60 18 3 135 4 259 3 l225 -2 66 -32z m-1152 -206 c0 -9 -30 -14 -35 -6 -4 6 3
10 14 10 12 0 21 -2 21 -4z m1260 -512 c0 -18 -95 -188 -114 -203 -16 -14
-126 -25 -126 -13 0 5 25 53 57 106 48 82 60 96 82 96 14 1 40 7 56 15 40 18
45 18 45 -1z m-257 -405 c-8 -31 -121 -148 -149 -155 -25 -6 -154 24 -154 36
0 7 111 97 145 117 12 8 39 10 71 6 30 -3 59 -1 70 5 11 6 20 12 21 12 0 0 -1
-10 -4 -21z m-403 -299 c39 0 28 -18 -29 -49 -32 -17 -64 -31 -70 -31 -12 0
-15 78 -3 96 12 20 46 21 65 2 10 -10 26 -18 37 -18z m-280 -568 c0 -98 -3
-181 -6 -185 -15 -14 -56 20 -79 67 -20 40 -25 65 -25 125 0 64 4 79 25 107
36 47 55 64 71 64 12 0 14 -30 14 -178z m-892 163 c-6 -6 -148 -55 -160 -55
-5 0 -8 10 -6 22 2 16 12 25 33 29 37 8 140 11 133 4z m537 -13 c37 -7 40 -10
38 -37 0 -17 -2 -63 -3 -102 -3 -85 3 -83 -122 -54 -75 18 -134 27 -383 60
-44 6 -107 12 -140 12 -33 1 -73 5 -90 9 l-30 7 30 7 c17 4 83 25 147 47 127
43 150 43 193 3 28 -25 42 -29 63 -15 11 6 6 17 -20 46 l-33 38 155 -7 c85 -4
173 -10 195 -14z m1260 -62 l0 -80 -38 0 c-119 0 -492 -78 -671 -140 -33 -11
-61 -20 -63 -20 -2 0 -2 50 -1 112 l3 112 59 18 c161 49 350 75 566 77 l145 1
0 -80z m-1695 -131 c127 -12 305 -40 411 -66 53 -12 73 -22 86 -42 9 -14 41
-52 71 -83 30 -32 51 -58 46 -58 -5 0 -47 12 -94 25 -163 48 -492 99 -725 113
l-120 7 2 29 c4 51 9 56 65 56 29 1 67 7 83 15 38 17 38 17 175 4z m1872 -23
c51 -18 103 -38 113 -44 11 -6 29 -13 39 -17 36 -11 7 -17 -134 -26 -275 -18
-593 -69 -782 -126 l-87 -26 -51 33 c-31 20 -50 39 -48 48 9 48 560 174 829
190 15 1 69 -13 121 -32z m-1853 -162 c229 -26 566 -100 689 -151 61 -25 72
-40 72 -100 0 -29 -2 -53 -4 -53 -2 0 -33 11 -70 25 -96 36 -321 91 -487 119
-117 20 -449 56 -516 56 -33 0 -2 12 87 35 104 26 116 33 97 59 -11 15 -19 16
-57 7 -25 -6 -75 -11 -112 -11 -63 0 -68 2 -68 22 0 21 2 21 117 14 64 -3 177
-13 252 -22z m2052 -35 c11 -42 13 -62 5 -64 -6 -2 -72 -6 -146 -10 -175 -8
-495 -49 -635 -81 -60 -13 -121 -27 -135 -30 -25 -6 -29 -2 -78 98 -12 23 379
104 623 127 61 6 124 13 140 15 17 1 71 4 120 5 l90 1 16 -61z m138 26 c60
-55 74 -93 69 -192 -3 -60 -9 -88 -21 -100 -23 -24 -30 -12 -55 87 -37 149
-52 240 -40 240 4 0 25 -16 47 -35z m-2688 -75 c23 -13 25 -47 4 -70 -9 -10
-18 -35 -21 -56 -11 -84 -12 -85 -46 -82 -40 4 -58 30 -35 52 8 9 19 16 24 16
5 0 18 7 30 15 21 15 21 17 6 60 -22 66 -8 89 38 65z m494 -101 c264 -32 539
-92 710 -156 l50 -19 3 -62 c2 -34 -1 -62 -6 -62 -4 0 -53 15 -108 34 -193 65
-454 116 -732 143 -116 11 -180 21 -187 30 -8 10 -23 11 -73 2 -90 -16 -93
-13 -74 62 l15 62 121 -7 c67 -4 193 -16 281 -27z m2098 -29 c8 -33 12 -62 8
-64 -3 -2 -58 -7 -121 -11 -310 -17 -591 -54 -771 -100 -91 -24 -90 -24 -87
47 l3 62 50 13 c210 55 591 106 821 111 l82 2 15 -60z m-1131 -25 c62 -60 72
-180 23 -274 -14 -28 -50 -61 -67 -61 -5 0 -8 83 -8 185 0 102 4 185 8 185 4
0 24 -16 44 -35z m1155 -112 c2 -6 -11 -19 -29 -30 -31 -18 -48 -42 -62 -85
-5 -16 -19 -18 -112 -18 -96 0 -110 2 -138 23 -73 55 -186 68 -261 31 -36 -17
-40 -23 -39 -55 l1 -36 -101 -18 c-56 -9 -150 -30 -211 -45 -60 -16 -112 -27
-114 -25 -5 5 41 117 53 131 24 26 321 85 542 110 131 14 432 33 458 29 6 -1
11 -6 13 -12z m-2122 -19 c254 -29 511 -84 693 -150 l72 -26 0 -65 c0 -58 -2
-64 -17 -58 -219 89 -720 185 -963 185 -50 0 -58 3 -63 21 -5 19 -10 20 -103
13 -90 -6 -97 -6 -91 10 4 10 7 24 7 31 0 24 31 45 68 46 20 0 46 5 57 10 23
10 157 4 340 -17z m-560 -5 c4 -6 4 -26 0 -46 -6 -34 -7 -35 -43 -28 -48 9
-62 21 -62 56 0 28 2 29 49 29 28 0 53 -5 56 -11z m-27 -158 c-5 -45 -78 -37
-78 8 0 30 19 40 52 29 24 -8 29 -15 26 -37z m662 -31 c174 -24 273 -43 400
-76 114 -30 280 -85 280 -93 0 -13 -235 -48 -265 -39 -82 23 -283 60 -423 78
-137 18 -158 23 -180 45 -43 44 -158 47 -213 6 -23 -17 -42 -21 -108 -21 -111
0 -119 20 -22 56 62 23 70 34 44 59 -17 18 -10 18 162 12 99 -3 245 -15 325
-27z m1543 -51 c31 -28 57 -54 57 -58 0 -5 -44 -13 -97 -19 -111 -13 -261 -41
-408 -78 l-101 -25 -47 21 -47 21 17 30 c10 17 23 34 28 39 17 14 273 77 385
95 58 9 112 18 120 19 8 2 20 4 26 5 5 0 36 -22 67 -50z m-1536 -134 c103 -13
292 -48 332 -61 11 -4 9 -10 -8 -27 -13 -15 -21 -36 -21 -60 0 -43 0 -43 -97
-23 -37 8 -128 22 -202 32 -130 17 -134 18 -152 48 -16 27 -17 32 -4 46 8 9
15 26 15 38 0 26 -10 26 137 7z m1538 -14 c-16 -10 -51 -30 -77 -44 -26 -15
-64 -43 -85 -63 -33 -32 -50 -39 -133 -55 -118 -23 -110 -24 -110 6 0 18 -11
32 -40 51 -23 15 -37 30 -33 34 20 18 385 88 463 89 l45 1 -30 -19z m457 -99
c4 -15 0 -17 -26 -14 -52 6 -64 14 -36 22 42 13 57 11 62 -8z m181 -38 c11
-11 -3 -24 -18 -18 -8 4 -12 10 -9 15 6 11 18 12 27 3z m-173 -35 c36 -5 93
-19 127 -30 67 -22 72 -30 89 -123 l7 -39 -74 6 c-507 46 -789 26 -1222 -85
-65 -16 -121 -27 -124 -24 -3 3 -5 31 -5 63 0 58 0 58 38 75 58 24 272 85 381
108 l97 19 24 -24 c21 -22 34 -25 92 -25 73 0 198 32 291 73 47 22 65 24 134
20 44 -2 109 -9 145 -14z m-1886 -25 c167 -27 367 -77 499 -124 l87 -32 0 -58
0 -58 -92 24 c-257 66 -499 102 -731 111 -122 4 -164 9 -150 16 24 13 63 55
63 68 0 5 11 14 25 19 14 5 34 23 43 40 20 35 3 35 256 -6z m-656 -44 c17 -28
47 -60 67 -71 20 -12 34 -23 32 -25 -2 -2 -53 -9 -113 -14 -60 -6 -119 -13
-131 -15 -28 -6 -29 10 -8 91 16 63 21 70 50 77 58 14 71 8 103 -43z m1242
-20 c0 -35 -3 -35 -111 5 l-64 24 88 0 87 1 0 -30z m227 24 c-6 -7 -106 -43
-118 -44 -9 0 -18 37 -11 44 3 3 35 6 70 6 36 0 62 -3 59 -6z m-809 -209 c157
-20 303 -47 472 -91 74 -19 152 -34 173 -34 21 0 109 18 195 39 162 41 335 73
482 91 164 20 712 6 758 -19 8 -5 -7 -29 -48 -78 l-61 -72 -247 6 c-328 7
-389 -5 -682 -132 -275 -119 -547 -118 -817 3 -126 57 -244 97 -348 117 -77
15 -124 17 -331 12 l-241 -6 -62 71 c-33 40 -58 74 -56 77 3 3 61 10 128 17
182 17 539 17 685 -1z"/>
<path d="M6007 5912 c-41 -43 -79 -91 -82 -105 -16 -60 58 -147 124 -147 28 0
46 12 117 82 46 45 84 84 84 88 0 3 -6 15 -14 26 -14 18 -18 15 -94 -58 -57
-56 -87 -78 -105 -78 -28 0 -57 32 -57 63 0 11 35 55 78 99 73 76 76 80 58 94
-11 8 -23 14 -26 14 -4 0 -41 -35 -83 -78z"/>
<path d="M1830 5814 c-12 -13 0 -29 86 -115 54 -54 102 -99 107 -99 4 0 39 33
77 72 51 54 66 76 58 85 -17 21 -32 15 -76 -32 -23 -25 -47 -45 -55 -45 -7 0
-46 34 -87 75 -41 41 -80 75 -86 75 -6 0 -17 -7 -24 -16z"/>
<path d="M6205 5663 c-61 -49 -110 -95 -110 -102 0 -8 7 -18 16 -24 13 -8 26
-3 57 21 46 37 58 39 72 13 7 -14 5 -37 -10 -85 -19 -62 -20 -67 -4 -91 9 -14
20 -25 24 -25 9 0 40 96 40 126 0 22 1 22 28 9 31 -17 57 -11 90 18 43 40 28
88 -65 196 l-29 33 -109 -89z m132 -15 c33 -37 42 -61 32 -80 -15 -27 -45 -22
-78 15 -37 38 -38 43 -8 68 28 23 30 23 54 -3z"/>
<path d="M1712 5662 c-22 -11 -41 -33 -58 -68 -22 -46 -24 -57 -15 -92 12 -42
63 -96 108 -113 66 -25 139 5 174 71 30 56 25 100 -18 150 -58 68 -124 86
-191 52z m131 -74 c46 -42 54 -73 27 -115 -17 -29 -25 -33 -65 -33 -37 0 -50
5 -80 35 -93 94 19 201 118 113z"/>
<path d="M6430 5419 c-133 -78 -151 -109 -110 -194 24 -49 70 -80 108 -70 14
3 67 30 118 59 84 48 90 53 81 74 -6 12 -14 22 -20 22 -5 0 -50 -23 -99 -51
-49 -27 -97 -49 -105 -47 -26 5 -56 53 -48 77 4 12 44 44 100 77 82 49 93 59
85 75 -6 10 -14 20 -18 23 -4 2 -45 -18 -92 -45z"/>
<path d="M1530 5409 c-11 -26 -10 -40 10 -105 13 -40 21 -77 18 -80 -4 -3 -28
7 -54 22 -45 26 -47 27 -60 9 -20 -27 -18 -33 24 -54 21 -11 76 -42 123 -70
46 -28 87 -51 90 -51 3 0 11 11 17 25 10 22 8 26 -28 46 -35 20 -49 42 -50 77
0 8 21 12 74 12 71 0 76 1 95 29 12 16 21 31 21 34 0 2 -48 4 -107 3 -119 -1
-107 -10 -133 92 -13 50 -23 53 -40 11z"/>
<path d="M1386 5132 c-10 -9 -86 -173 -86 -184 0 -5 10 -12 23 -17 12 -5 69
-32 127 -59 58 -28 108 -48 112 -46 10 7 88 174 88 189 0 10 -20 25 -34 25 -1
0 -17 -32 -36 -71 -32 -64 -36 -70 -60 -64 -49 13 -50 21 -18 92 23 52 27 68
16 74 -25 16 -33 9 -62 -56 -16 -36 -31 -65 -32 -65 -13 0 -54 22 -54 29 0 7
35 87 58 133 5 10 -34 29 -42 20z"/>
<path d="M6620 5104 c-19 -2 -77 -7 -127 -10 l-93 -6 14 -26 c11 -20 21 -26
51 -26 37 -1 40 -4 61 -53 l23 -52 -23 -28 c-18 -21 -21 -33 -15 -50 5 -13 12
-23 16 -23 4 0 54 50 111 110 96 102 103 112 95 138 -10 29 -33 34 -113 26z
m7 -91 c-37 -37 -39 -37 -53 -19 -7 11 -14 28 -14 38 0 15 9 18 52 18 l53 0
-38 -37z"/>
<path d="M6715 4849 c-178 -58 -188 -63 -167 -96 6 -10 26 -7 87 12 43 14 82
24 86 23 4 -2 -24 -40 -62 -84 -63 -74 -68 -84 -59 -108 5 -14 13 -26 17 -26
5 1 67 20 138 44 119 40 130 46 127 67 -1 12 -4 24 -5 26 -2 1 -40 -10 -85
-24 -45 -15 -84 -24 -88 -21 -3 4 24 41 60 82 65 75 72 89 60 120 -7 19 0 20
-109 -15z"/>
<path d="M1259 4808 c-28 -30 -39 -61 -39 -109 0 -83 82 -109 140 -43 17 20
36 47 42 59 12 27 41 38 57 22 17 -17 13 -72 -6 -89 -10 -9 -27 -18 -38 -20
-13 -2 -21 -12 -23 -31 -3 -23 0 -27 20 -27 45 0 86 36 102 89 22 74 4 119
-53 139 -42 15 -83 -8 -115 -62 -32 -56 -61 -74 -74 -49 -14 28 1 67 31 81 15
7 27 17 27 22 0 4 3 15 6 24 10 26 -51 21 -77 -6z"/>
<path d="M6681 3858 c-64 -33 -86 -68 -86 -133 0 -43 5 -59 25 -81 35 -38 98
-64 173 -71 51 -4 72 -2 114 17 43 18 56 30 74 67 23 49 22 97 -5 138 -23 35
-112 74 -186 80 -56 6 -71 3 -109 -17z m183 -62 c66 -28 85 -89 40 -131 -23
-21 -37 -25 -91 -25 -105 0 -153 31 -153 99 0 46 39 71 112 71 32 0 74 -6 92
-14z"/>
<path d="M1285 3814 c-88 -13 -166 -23 -172 -24 -8 0 -13 -13 -13 -29 0 -28 2
-29 33 -25 127 18 242 32 245 30 4 -4 -33 -18 -160 -62 -105 -35 -108 -37
-101 -63 3 -14 6 -27 7 -28 1 -1 64 -6 140 -12 77 -6 141 -12 143 -14 2 -2
-58 -13 -134 -23 -104 -14 -138 -23 -140 -34 -7 -40 7 -41 202 -14 105 14 191
27 193 28 7 8 -12 88 -22 91 -6 2 -64 7 -128 10 -65 4 -118 10 -118 13 0 4 51
24 113 46 61 21 115 41 119 45 4 3 4 25 1 49 -7 50 10 49 -208 16z"/>
<path d="M6556 3498 c-3 -13 -6 -26 -6 -29 0 -3 62 -19 138 -34 146 -30 182
-44 182 -74 0 -21 -19 -31 -56 -31 -20 0 -24 -5 -24 -30 0 -29 2 -30 43 -30
54 0 83 21 96 67 12 43 0 76 -39 105 -20 15 -279 78 -319 78 -5 0 -11 -10 -15
-22z"/>
<path d="M1346 3420 c-93 -22 -170 -41 -171 -42 -2 -2 -1 -15 2 -30 4 -22 10
-27 27 -23 11 3 95 21 186 41 91 20 168 38 171 40 4 2 4 15 1 29 -6 32 -10 32
-216 -15z"/>
<path d="M1532 3332 c-9 -7 -10 -16 -1 -40 6 -18 9 -38 6 -45 -3 -7 -70 -33
-151 -57 -132 -41 -146 -47 -146 -68 0 -12 7 -25 15 -28 8 -3 72 12 142 34 71
22 138 43 150 47 19 5 24 0 34 -35 12 -40 26 -48 58 -31 16 9 15 18 -18 120
-30 92 -39 110 -56 111 -11 0 -26 -4 -33 -8z"/>
<path d="M6507 3216 c-18 -19 -82 -185 -74 -192 13 -10 361 -105 372 -100 8 3
15 16 15 29 0 20 -8 25 -52 36 -95 24 -99 27 -87 54 11 25 45 39 124 53 22 4
47 10 56 15 16 8 35 57 26 66 -7 6 -161 -28 -174 -38 -13 -11 -17 -5 -27 34
-15 62 -134 91 -179 43z m113 -54 c20 -16 21 -20 9 -66 -14 -55 -25 -62 -74
-46 -38 13 -41 20 -24 71 22 63 47 75 89 41z"/>
<path d="M1488 2977 c-167 -72 -181 -82 -158 -117 7 -12 20 -10 85 17 l76 32
8 -22 c10 -26 4 -40 -55 -119 -43 -58 -43 -60 -28 -89 8 -16 19 -27 24 -24 12
7 97 121 102 137 3 8 11 7 28 -5 63 -44 180 7 180 79 0 31 -70 184 -84 183 -6
0 -86 -33 -178 -72z m172 -49 c24 -53 25 -67 3 -84 -31 -23 -60 -17 -81 19
-36 59 -36 70 6 89 52 23 51 23 72 -24z"/>
<path d="M6350 2834 c-6 -14 -10 -27 -10 -29 0 -5 235 -203 277 -235 37 -26
39 -26 48 12 6 22 1 30 -24 49 -37 27 -38 40 -7 99 23 43 24 44 70 41 41 -2
47 0 57 23 7 14 10 29 7 32 -5 5 -323 33 -381 34 -20 0 -30 -7 -37 -26z m224
-55 c10 -8 -11 -69 -24 -69 -11 0 -100 70 -100 79 0 10 112 1 124 -10z"/>
<path d="M1661 2629 c-106 -21 -195 -40 -198 -43 -2 -2 3 -15 12 -29 14 -23
19 -24 57 -15 47 10 52 7 89 -60 l23 -42 -33 -34 c-33 -34 -33 -34 -15 -61
l18 -28 138 144 c76 79 138 149 138 155 0 7 -8 21 -17 32 -18 19 -19 19 -212
-19z m89 -84 c-24 -25 -49 -45 -55 -45 -11 0 -50 58 -43 65 5 5 91 23 118 24
23 1 21 -2 -20 -44z"/>
<path d="M6253 2614 c-98 -50 -97 -183 2 -258 124 -95 250 -86 297 21 18 40
19 51 9 85 -35 115 -211 202 -308 152z m122 -58 c52 -22 101 -63 115 -96 25
-61 -30 -120 -98 -105 -17 3 -51 19 -76 36 -78 49 -95 126 -38 162 33 20 53
21 97 3z"/>
<path d="M2030 2302 c-18 -9 -43 -29 -54 -45 -18 -24 -19 -33 -9 -75 6 -26 17
-62 24 -80 24 -57 -23 -92 -77 -58 -27 18 -34 72 -12 94 10 10 7 17 -10 35
l-23 22 -25 -28 c-42 -49 -27 -129 32 -176 19 -15 41 -21 77 -21 44 0 53 4 83
36 44 46 48 91 13 169 -28 64 -3 103 47 70 29 -19 38 -48 24 -76 -10 -18 -9
-25 9 -43 l22 -21 19 25 c29 38 33 68 13 108 -33 66 -97 93 -153 64z"/>
<path d="M5982 2255 c-35 -36 -62 -69 -60 -74 2 -7 189 -160 285 -233 7 -6 24
5 49 32 99 107 100 166 7 257 -58 56 -113 82 -173 83 -41 0 -48 -4 -108 -65z
m207 -39 c26 -19 56 -50 66 -69 18 -34 18 -35 -1 -67 -39 -67 -34 -69 -214 81
l-35 29 38 36 c47 44 75 42 146 -10z"/>
<path d="M2165 1991 c-71 -71 -131 -134 -133 -140 -4 -12 147 -160 164 -161 6
0 19 8 28 19 16 18 14 21 -44 76 -33 32 -60 61 -60 64 0 12 60 73 69 69 5 -2
33 -25 61 -52 49 -47 52 -48 70 -31 11 10 20 22 20 27 0 5 -22 30 -50 55 -27
25 -50 49 -50 53 0 10 47 60 57 60 4 0 33 -26 65 -57 l58 -57 22 22 23 22 -65
63 c-116 111 -87 115 -235 -32z"/>
<path d="M5834 2099 c-18 -20 -17 -21 116 -149 74 -71 141 -128 149 -127 8 1
19 10 25 20 10 16 -7 35 -124 147 -74 71 -138 129 -141 130 -3 0 -14 -9 -25
-21z"/>
<path d="M5684 1980 c-37 -15 -74 -68 -74 -107 0 -27 8 -43 34 -69 39 -39 81
-44 151 -19 62 23 93 20 101 -10 8 -33 1 -50 -30 -70 -21 -14 -31 -15 -62 -5
-32 11 -38 10 -56 -8 -20 -19 -20 -19 15 -41 89 -55 207 7 207 108 0 51 -63
111 -118 111 -22 0 -59 -7 -82 -15 -59 -21 -87 -19 -95 6 -13 40 46 80 86 59
18 -10 25 -9 43 10 l21 21 -24 20 c-24 20 -79 24 -117 9z"/>
<path d="M2392 1777 c-56 -83 -102 -156 -102 -161 0 -9 30 -35 41 -36 7 0 61
77 71 103 13 30 34 30 87 -1 l51 -29 -45 -69 c-24 -38 -45 -72 -45 -75 0 -3
11 -11 24 -17 29 -13 25 -17 154 176 46 67 80 127 77 132 -3 6 -15 14 -25 20
-16 9 -25 1 -61 -50 -23 -33 -45 -60 -48 -60 -11 0 -101 59 -101 65 0 4 18 32
40 65 l39 58 -24 16 c-13 9 -26 16 -27 16 -2 0 -49 -69 -106 -153z"/>
<path d="M5343 1747 c-13 -5 -23 -14 -23 -18 0 -5 25 -53 55 -106 31 -54 70
-126 87 -160 34 -66 42 -72 73 -50 17 13 13 23 -70 176 -48 89 -90 163 -94
165 -3 2 -16 -1 -28 -7z"/>
<path d="M2774 1617 c-55 -51 -118 -110 -141 -132 -49 -43 -52 -55 -22 -73 19
-12 25 -10 55 19 l34 33 60 -29 c42 -20 59 -33 56 -44 -16 -62 -16 -70 6 -85
12 -9 27 -16 33 -16 8 0 76 344 75 382 0 4 -13 14 -29 22 l-29 15 -98 -92z
m74 -68 c-6 -30 -15 -58 -19 -63 -10 -11 -69 12 -69 27 0 10 91 99 97 93 2 -1
-2 -27 -9 -57z"/>
<path d="M5088 1618 l-77 -31 19 -46 c79 -191 123 -297 126 -300 8 -9 54 11
54 24 0 7 -12 41 -26 75 -15 33 -25 62 -23 64 2 3 16 7 30 11 21 5 38 -4 95
-48 64 -50 71 -53 102 -44 17 6 32 13 32 17 0 13 -132 110 -148 110 -12 0 -11
5 6 23 30 32 35 67 18 109 -32 76 -85 85 -208 36z m136 -44 c19 -19 21 -58 4
-72 -7 -5 -30 -17 -51 -25 -36 -15 -38 -15 -51 6 -8 12 -18 34 -21 49 -6 25
-4 28 42 42 62 19 59 19 77 0z"/>
<path d="M3040 1611 c0 -5 -3 -17 -6 -26 -5 -12 4 -20 35 -32 22 -9 41 -19 41
-23 0 -4 -28 -70 -61 -145 -58 -131 -61 -139 -43 -152 28 -20 40 -16 54 20 16
40 110 251 114 254 1 2 22 -5 45 -14 37 -14 44 -15 52 -2 21 33 8 44 -99 87
-109 43 -132 49 -132 33z"/>
<path d="M4898 1543 c-10 -2 -18 -11 -18 -18 0 -11 84 -285 104 -341 7 -18 56
-4 56 15 0 16 -96 326 -106 342 -5 9 -8 10 -36 2z"/>
<path d="M4602 1476 c-29 -8 -55 -16 -58 -19 -7 -7 65 -348 76 -360 9 -10 149
20 178 39 75 50 64 232 -20 316 -33 33 -44 38 -80 37 -24 0 -67 -6 -96 -13z
m113 -56 c34 -13 64 -82 68 -154 3 -67 -12 -86 -75 -93 l-43 -5 -24 113 c-13
63 -24 118 -25 124 0 5 15 12 34 16 19 3 36 7 37 8 1 0 13 -3 28 -9z"/>
<path d="M3470 1463 c0 -4 -11 -88 -23 -186 l-23 -178 24 -6 c15 -3 27 -1 32
7 5 8 14 66 21 131 7 65 16 116 20 114 4 -3 10 -55 14 -117 8 -144 10 -148 45
-148 31 0 29 -3 95 183 15 43 29 76 31 74 2 -2 -3 -58 -12 -126 -9 -67 -13
-129 -10 -137 3 -9 15 -14 28 -12 21 3 24 13 46 187 13 100 22 184 20 186 -2
2 -23 6 -48 10 l-45 6 -45 -123 c-24 -68 -46 -114 -48 -103 -1 11 -8 70 -15
130 l-12 110 -47 3 c-27 2 -48 -1 -48 -5z"/>
<path d="M4393 1373 c4 -38 9 -93 13 -123 4 -30 3 -52 -1 -48 -4 4 -40 53 -79
110 -63 91 -75 103 -104 106 -39 4 -38 16 -9 -208 l22 -165 28 -3 c32 -4 34 7
13 141 -7 48 -10 89 -7 91 3 2 40 -45 81 -105 69 -101 77 -109 108 -109 17 0
32 3 32 8 0 13 -41 327 -46 350 -3 16 -11 22 -31 22 l-26 0 6 -67z"/>
<path d="M3940 1363 c-30 -79 -77 -207 -100 -270 l-19 -53 34 0 c31 0 35 4 46
40 l12 40 68 0 67 0 14 -42 c13 -37 19 -43 46 -46 18 -2 32 0 32 5 0 5 -25 91
-55 192 -30 101 -55 186 -55 187 0 2 -15 4 -34 4 -33 0 -36 -3 -56 -57z m84
-175 c-3 -4 -15 -6 -27 -4 -12 3 -30 5 -39 5 -16 1 -16 5 2 56 29 83 32 84 51
15 10 -36 15 -68 13 -72z"/>
</g>
</svg>
